<svg width="70" height="70" viewBox="0 0 70 70" fill="none" xmlns="http://www.w3.org/2000/svg">
<path d="M57.1667 61.25L38.7917 42.875C37.3333 44.0417 35.6563 44.9653 33.7604 45.6458C31.8646 46.3264 29.8472 46.6667 27.7083 46.6667C22.4097 46.6667 17.9258 44.8311 14.2567 41.16C10.5875 37.4889 8.75195 33.005 8.75 27.7083C8.74806 22.4117 10.5836 17.9278 14.2567 14.2567C17.9297 10.5856 22.4136 8.75 27.7083 8.75C33.0031 8.75 37.4879 10.5856 41.1629 14.2567C44.8379 17.9278 46.6725 22.4117 46.6667 27.7083C46.6667 29.8472 46.3264 31.8646 45.6458 33.7604C44.9653 35.6562 44.0417 37.3333 42.875 38.7917L61.25 57.1667L57.1667 61.25ZM27.7083 40.8333C31.3542 40.8333 34.4536 39.5578 37.0067 37.0067C39.5597 34.4556 40.8353 31.3561 40.8333 27.7083C40.8314 24.0606 39.5558 20.9621 37.0067 18.4129C34.4575 15.8638 31.3581 14.5872 27.7083 14.5833C24.0586 14.5794 20.9601 15.856 18.4129 18.4129C15.8657 20.9699 14.5892 24.0683 14.5833 27.7083C14.5775 31.3483 15.854 34.4478 18.4129 37.0067C20.9718 39.5656 24.0703 40.8411 27.7083 40.8333Z" fill="#9A99E1"/>
</svg>
